{
    "asset" : {
        "generator" : "Khronos glTF Blender I/O v1.7.33",
        "version" : "2.0"
    },
    "scene" : 0,
    "scenes" : [
        {
            "name" : "Scene",
            "nodes" : [
                7
            ]
        }
    ],
    "nodes" : [
        {
            "mesh" : 0,
            "name" : "Storage_Rack_Solid Glass_0",
            "scale" : [
                0.8966867923736572,
                0.292201429605484,
                0.8810298442840576
            ],
            "translation" : [
                -1.314603328704834,
                -2.754668712615967,
                -4.754085694003152e-06
            ]
        },
        {
            "children" : [
                0
            ],
            "name" : "Object_6",
            "translation" : [
                0.9460590481758118,
                3.9082188606262207,
                0
            ]
        },
        {
            "children" : [
                1
            ],
            "name" : "Storage_Rack",
            "scale" : [
                1.4837499856948853,
                1.4837499856948853,
                1.4837499856948853
            ],
            "translation" : [
                0,
                3.814697265625e-06,
                -5.1644110679626465
            ]
        },
        {
            "children" : [
                2
            ],
            "name" : "Group019",
            "translation" : [
                0,
                -7.62939453125e-06,
                0
            ]
        },
        {
            "children" : [
                3
            ],
            "name" : "RC",
            "rotation" : [
                -0.7071068286895752,
                0,
                0,
                0.7071068286895752
            ],
            "scale" : [
                1,
                3.6600327491760254,
                1
            ],
            "translation" : [
                1.8264802694320679,
                5.164412021636963,
                0.07800650596618652
            ]
        },
        {
            "children" : [
                4
            ],
            "name" : "RootNode"
        },
        {
            "children" : [
                5
            ],
            "name" : "Storage_Rack.FBX",
            "rotation" : [
                0.7071067094802856,
                0,
                0,
                0.7071068286895752
            ]
        },
        {
            "children" : [
                6
            ],
            "name" : "Sketchfab_model",
            "rotation" : [
                -0.7071068286895752,
                0,
                0,
                0.7071067094802856
            ]
        }
    ],
    "materials" : [
        {
            "doubleSided" : true,
            "name" : "Solid_Glass.001",
            "normalTexture" : {
                "index" : 0,
                "scale" : 0.5653409361839294
            },
            "occlusionTexture" : {
                "index" : 1
            },
            "pbrMetallicRoughness" : {
                "baseColorTexture" : {
                    "index" : 2
                },
                "metallicFactor" : 0.365340918302536,
                "metallicRoughnessTexture" : {
                    "index" : 1
                },
                "roughnessFactor" : 0.7047348618507385
            }
        }
    ],
    "meshes" : [
        {
            "name" : "Storage_Rack_Solid Glass_0.001",
            "primitives" : [
                {
                    "attributes" : {
                        "POSITION" : 0,
                        "NORMAL" : 1,
                        "TEXCOORD_0" : 2
                    },
                    "indices" : 3,
                    "material" : 0
                }
            ]
        }
    ],
    "textures" : [
        {
            "sampler" : 0,
            "source" : 0
        },
        {
            "sampler" : 0,
            "source" : 1
        },
        {
            "sampler" : 0,
            "source" : 2
        }
    ],
    "images" : [
        {
            "mimeType" : "image/png",
            "name" : "Solid_Glass_normal",
            "uri" : "texturesEdit/Solid_Glass_normal.png"
        },
        {
            "mimeType" : "image/png",
            "name" : "Solid_Glass_metallicRoughness",
            "uri" : "texturesEdit/Solid_Glass_metallicRoughness.png"
        },
        {
            "mimeType" : "image/jpeg",
            "name" : "Solid_Glass_baseColor",
            "uri" : "texturesEdit/Solid_Glass_baseColor.jpg"
        }
    ],
    "accessors" : [
        {
            "bufferView" : 0,
            "componentType" : 5126,
            "count" : 2036,
            "max" : [
                0.125,
                0.125,
                6.9612956047058105
            ],
            "min" : [
                -2.017117500305176,
                -7.941440582275391,
                -2.9802322387695312e-08
            ],
            "type" : "VEC3"
        },
        {
            "bufferView" : 1,
            "componentType" : 5126,
            "count" : 2036,
            "type" : "VEC3"
        },
        {
            "bufferView" : 2,
            "componentType" : 5126,
            "count" : 2036,
            "type" : "VEC2"
        },
        {
            "bufferView" : 3,
            "componentType" : 5123,
            "count" : 2316,
            "type" : "SCALAR"
        }
    ],
    "bufferViews" : [
        {
            "buffer" : 0,
            "byteLength" : 24432,
            "byteOffset" : 0
        },
        {
            "buffer" : 0,
            "byteLength" : 24432,
            "byteOffset" : 24432
        },
        {
            "buffer" : 0,
            "byteLength" : 16288,
            "byteOffset" : 48864
        },
        {
            "buffer" : 0,
            "byteLength" : 4632,
            "byteOffset" : 65152
        }
    ],
    "samplers" : [
        {
            "magFilter" : 9729,
            "minFilter" : 9987
        }
    ],
    "buffers" : [
        {
            "byteLength" : 69784,
            "uri" : "sceneEdit.bin"
        }
    ]
}
